# xmcd CD database file
#
# Track frame offsets:
#	150
#	25558
#	44616
#	65990
#	85550
#	106033
#	131469
#	155180
#	176634
#	196079
#	214172
#	230924
#	251400
#	275463
#
# Disc length: 4014 seconds
#
# Revision: 2
# Processed by: cddbd v1.5.1PL0 Copyright (c) Steve Scherf et al.
# Submitted via: CDex 1.51
#
DISCID=c30fac0e
DTITLE=THE YELLOW MONKEY - MOTHER OF ALL THE BEST Disk 1-2
DYEAR=2004
DGENRE=Rock and Roll
TTITLE0=NAI
TTITLE1=SPARK
TTITLE2=楽園
TTITLE3=TVのシンガー
TTITLE4=TACTICS
TTITLE5=球根
TTITLE6=BURN
TTITLE7=LOVE LOVE SHOW
TTITLE8=HOTEL宇宙船
TTITLE9=カナリヤ
TTITLE10=パール
TTITLE11=花吹雪
TTITLE12=JAM
TTITLE13=空の青と本当の気持ち
EXTD=YEAR: 2004
EXTT0=
EXTT1=
EXTT2=
EXTT3=
EXTT4=
EXTT5=
EXTT6=
EXTT7=
EXTT8=
EXTT9=
EXTT10=
EXTT11=
EXTT12=
EXTT13=
PLAYORDER=
